<svg width="30" height="30" viewBox="0 0 30 30" fill="none" xmlns="http://www.w3.org/2000/svg">
<path d="M22.56 22.56C20.3844 24.2183 17.7352 25.1371 15 25.1818C6.09091 25.1818 1 15 1 15C2.58313 12.0497 4.7789 9.47201 7.44 7.43997M12.3273 5.1236C13.2033 4.91854 14.1003 4.81603 15 4.81815C23.9091 4.81815 29 15 29 15C28.2274 16.4453 27.3061 17.806 26.2509 19.06M17.6982 17.6981C17.3486 18.0733 16.9271 18.3742 16.4587 18.5828C15.9904 18.7915 15.4848 18.9037 14.9721 18.9128C14.4594 18.9218 13.9502 18.8275 13.4748 18.6355C12.9993 18.4435 12.5675 18.1576 12.2049 17.7951C11.8423 17.4325 11.5565 17.0006 11.3645 16.5252C11.1724 16.0498 11.0781 15.5405 11.0872 15.0278C11.0962 14.5152 11.2084 14.0096 11.4171 13.5412C11.6258 13.0729 11.9267 12.6513 12.3018 12.3018" stroke="black" stroke-width="2" stroke-linecap="round" stroke-linejoin="round"/>
<path d="M1 1L29 29" stroke="black" stroke-width="2" stroke-linecap="round" stroke-linejoin="round"/>
</svg>
